HIERARCHY
ROOT Pelvis
{
	OFFSET 0.000000 0.000000 0.000000
	CHANNELS 6 Xposition Yposition Zposition Zrotation Yrotation Xrotation 
	JOINT Left_hip
	{
		OFFSET 0.076090 -0.089427 -0.010735
		CHANNELS 3 Zrotation Yrotation Xrotation
		JOINT Left_knee
		{
			OFFSET 0.030200 -0.359518 -0.003501
			CHANNELS 3 Zrotation Yrotation Xrotation
			JOINT Left_ankle
			{
				OFFSET -0.011005 -0.371022 -0.045888
				CHANNELS 3 Zrotation Yrotation Xrotation
				JOINT Left_foot
				{
					OFFSET 0.023930 -0.052103 0.111084
					CHANNELS 3 Zrotation Yrotation Xrotation
					End Site
					{
						OFFSET 0.000000 0.000000 0.000000
					}
				}
			}
		}
	}
	JOINT Right_hip
	{
		OFFSET -0.073836 -0.088112 -0.007709
		CHANNELS 3 Zrotation Yrotation Xrotation
		JOINT Right_knee
		{
			OFFSET -0.035715 -0.367809 -0.006536
			CHANNELS 3 Zrotation Yrotation Xrotation
			JOINT Right_ankle
			{
				OFFSET 0.013718 -0.371958 -0.043815
				CHANNELS 3 Zrotation Yrotation Xrotation
				JOINT Right_foot
				{
					OFFSET -0.021936 -0.046387 0.114542
					CHANNELS 3 Zrotation Yrotation Xrotation
					End Site
					{
						OFFSET 0.000000 0.000000 0.000000
					}
				}
			}
		}
	}
	JOINT Spine1
	{
		OFFSET -0.001865 0.102064 -0.019455
		CHANNELS 3 Zrotation Yrotation Xrotation
		JOINT Spine2
		{
			OFFSET 0.003082 0.129260 -0.001938
			CHANNELS 3 Zrotation Yrotation Xrotation
			JOINT Spine3
			{
				OFFSET 0.001104 0.048093 0.026561
				CHANNELS 3 Zrotation Yrotation Xrotation
				JOINT Neck
				{
					OFFSET -0.002010 0.204222 -0.047183
					CHANNELS 3 Zrotation Yrotation Xrotation
					JOINT Head
					{
						OFFSET 0.005050 0.063649 0.048489
						CHANNELS 3 Zrotation Yrotation Xrotation
						End Site
						{
							OFFSET 0.000000 0.000000 0.000000
						}
					}
				}
				JOINT Left_collar
				{
					OFFSET 0.072979 0.114065 -0.031633
					CHANNELS 3 Zrotation Yrotation Xrotation
					JOINT Left_shoulder
					{
						OFFSET 0.083419 0.032092 -0.006530
						CHANNELS 3 Zrotation Yrotation Xrotation
						JOINT Left_elbow
						{
							OFFSET 0.239393 -0.012014 -0.025060
							CHANNELS 3 Zrotation Yrotation Xrotation
							JOINT Left_wrist
							{
								OFFSET 0.227297 0.008116 0.000384
								CHANNELS 3 Zrotation Yrotation Xrotation
								JOINT Left_palm
								{
									OFFSET 0.074607 -0.009248 -0.012277
									CHANNELS 3 Zrotation Yrotation Xrotation
									End Site
									{
										OFFSET 0.000000 0.000000 0.000000
									}
								}
							}
						}
					}
				}
				JOINT Right_collar
				{
					OFFSET -0.074980 0.111880 -0.037894
					CHANNELS 3 Zrotation Yrotation Xrotation
					JOINT Right_shoulder
					{
						OFFSET -0.087565 0.034353 -0.009323
						CHANNELS 3 Zrotation Yrotation Xrotation
						JOINT Right_elbow
						{
							OFFSET -0.236838 -0.013719 -0.019794
							CHANNELS 3 Zrotation Yrotation Xrotation
							JOINT Right_wrist
							{
								OFFSET -0.235053 0.006433 -0.003853
								CHANNELS 3 Zrotation Yrotation Xrotation
								JOINT Right_palm
								{
									OFFSET -0.075499 -0.006894 -0.009792
									CHANNELS 3 Zrotation Yrotation Xrotation
									End Site
									{
										OFFSET 0.000000 0.000000 0.000000
									}
								}
							}
						}
					}
				}
			}
		}
	}
}
MOTION
Frames: 13
Frame Time: 0.100000
0.000000 0.000000 0.000000 173.639621 26.363310 -14.148899 0.699409 1.040013 8.343237 -2.537878 -6.883981 -7.585995 -0.061600 8.088492 -5.498783 1.058748 6.386973 -2.535313 2.844488 -1.265574 7.464832 2.680627 4.682072 -5.994892 5.106683 -10.720401 -8.996477 -6.939885 7.714859 6.209202 1.237504 0.911062 1.247128 1.804940 -2.052533 0.077670 1.488971 -1.311059 -0.887822 0.769661 2.495782 -13.535290 -2.721589 -4.980342 1.368190 -28.487049 -3.649314 2.525468 -51.018793 -10.338665 10.395768 5.177869 -20.994150 8.990584 -4.801129 -2.269597 -1.177495 -9.532225 -5.031188 -9.237720 28.978605 6.868413 2.886776 43.396269 6.349299 11.214694 -9.296452 7.737122 -7.764261 3.663026 -1.909311 -0.932980 12.181095 7.255420 -6.569983 
0.000954 -0.000083 0.001148 173.601194 26.279631 -14.225971 0.862023 0.888794 8.527856 -2.621932 -6.885396 -7.769525 -0.024011 8.168426 -5.442895 1.574022 6.457701 -2.655078 2.863453 -1.308339 7.713517 2.866088 4.752093 -6.310357 4.940110 -10.742472 -8.834896 -7.257782 7.716008 6.156862 1.141668 1.146277 1.016713 1.770123 -1.946839 0.733829 1.625765 -1.162637 -0.821334 0.452144 2.025642 -13.705128 -2.404602 -5.375836 0.980248 -29.035888 -4.069760 3.264690 -52.697953 -9.390094 11.446367 3.311304 -21.037249 11.367133 -5.935998 -2.584666 -1.169950 -9.585932 -4.936040 -9.729133 29.685556 7.601683 3.925109 46.119799 5.761084 13.247317 -6.600718 11.082166 -3.656738 5.534286 -1.485024 -1.169222 12.149870 7.245965 -6.707246 
0.000687 -0.000351 0.003068 173.563298 26.911930 -14.530857 1.028508 0.827789 9.111487 -2.810250 -7.406868 -8.216691 -0.139383 7.983096 -5.123165 2.320591 6.867838 -2.972576 2.780789 -1.450332 8.423318 3.034363 5.032693 -6.826488 4.714275 -11.786066 -8.816954 -8.113342 8.673122 5.883014 1.305906 1.146972 0.526130 1.411728 -2.201219 1.907307 1.438637 -1.222031 -0.618313 0.244823 1.461565 -13.941328 -1.752681 -5.436228 0.633161 -30.405635 -5.355064 4.481006 -53.551361 -8.236033 12.037454 0.634510 -18.276691 13.789614 -7.241306 -2.428945 -0.157820 -9.771662 -4.983884 -10.764945 30.109401 8.841445 5.563493 48.489312 3.914950 16.592461 -1.652655 16.545313 4.086639 7.816774 -0.662681 -0.330254 12.191391 7.401405 -6.825101 
0.001992 -0.000950 0.001031 173.611704 27.533307 -14.605154 1.068372 0.928518 8.905630 -3.000281 -7.631939 -8.079212 -0.286529 7.583368 -4.529951 2.433595 6.990310 -3.346699 2.598191 -1.628146 8.428807 3.144422 4.837321 -6.894717 4.528518 -11.979230 -8.425418 -8.284495 8.490768 5.740705 1.374145 1.198740 0.763462 1.211762 -2.425915 2.453687 1.308558 -1.326638 -0.376032 0.379697 0.806059 -13.837622 -0.986469 -5.643895 -0.420886 -30.049756 -5.712177 4.892964 -53.703319 -7.392005 12.305673 -1.252765 -17.440785 16.140299 -8.760155 -2.506202 0.373515 -10.038759 -4.990930 -11.647468 29.122986 8.707385 5.899645 49.427641 2.803454 16.935164 -0.669684 19.489446 6.318687 8.275411 -0.240046 -0.964862 12.378281 7.514095 -7.093319 
0.006054 -0.000665 -0.003877 173.607862 27.968748 -14.501280 1.124510 0.982419 8.341801 -2.989739 -7.856011 -8.087723 -1.091466 7.606685 -4.183632 3.019697 6.662939 -3.329458 2.611924 -1.683971 7.807833 3.109475 4.792764 -6.717633 5.199105 -12.287833 -8.216900 -9.059856 8.780313 5.164797 1.402739 1.162160 1.683933 1.201594 -2.300259 2.237330 1.357310 -1.326485 -0.127212 0.475363 0.424406 -14.396195 -0.688205 -6.057644 -0.652510 -29.103006 -4.722352 4.515811 -52.345492 -6.862746 11.233005 0.101618 -17.053836 13.387895 -7.116215 -2.751184 -0.858222 -9.629375 -4.924082 -11.153942 28.273821 8.167281 5.292814 47.792779 2.726366 16.079257 -1.101657 18.643263 4.405675 7.525912 -0.250158 -1.324717 12.054033 7.301078 -6.739259 
0.015567 0.000903 -0.015667 173.662454 28.572063 -13.444019 1.222668 0.936313 5.878623 -3.197827 -7.841832 -7.643862 -1.918846 7.254183 -3.382996 3.473467 6.755316 -3.085410 2.691971 -1.637752 5.659116 3.031814 4.429181 -6.701005 6.361423 -12.830373 -7.441126 -10.735686 9.402560 4.117801 1.192434 1.237202 3.452804 1.015150 -2.227801 1.229874 1.348358 -1.309918 -0.050114 1.286656 -0.608634 -16.612924 0.595738 -7.993917 -1.346756 -28.040632 -4.678411 3.329852 -49.976287 -7.441187 9.327021 2.437443 -11.625642 9.099577 -4.996042 -1.687977 0.749755 -9.288507 -5.079427 -11.351018 27.437446 8.334468 4.129686 46.902488 2.915260 15.404893 -2.445066 15.936103 2.477432 5.985981 -0.546616 -0.064822 11.819311 7.272774 -6.585408 
0.029500 0.004148 -0.033197 173.580790 29.431189 -11.260116 1.364105 0.674264 1.390890 -3.409837 -7.268224 -6.851737 -2.852901 6.791607 -2.244675 4.254682 6.617040 -2.971117 2.882565 -1.407844 1.588979 3.083663 3.614960 -6.386820 7.319889 -13.345532 -6.542485 -12.456115 9.707994 3.445562 0.989087 1.161617 5.763447 0.844249 -2.401116 -0.473701 1.398031 -1.451137 -0.336251 2.164118 -2.255221 -20.608824 2.508603 -10.721035 -3.194623 -26.723470 -5.143362 2.559401 -47.927165 -7.561516 8.474740 2.910101 -8.403457 7.499363 -4.007254 -1.191102 2.633821 -9.196891 -5.163599 -12.017044 26.402971 8.891008 3.072845 47.019861 2.832883 15.153276 -3.239203 15.078930 2.129618 4.948223 -0.328162 0.994425 11.484414 7.241257 -6.641741 
0.047503 0.008018 -0.055288 173.326031 30.408456 -9.544964 1.341311 0.032387 -3.552499 -3.130285 -6.189715 -4.949202 -4.010011 6.525950 -1.263810 5.408380 6.498794 -3.127024 3.303299 -0.937854 -2.745134 2.953021 2.354126 -5.290004 8.229614 -13.890386 -5.573634 -14.294474 10.119489 3.085824 0.769578 1.140014 9.318994 0.980726 -2.475633 -1.526146 1.658768 -1.538781 -0.430245 4.116815 -6.425964 -26.362823 5.344093 -16.380695 -5.453660 -25.986253 -5.861137 2.375445 -47.434975 -7.728308 9.211239 2.618721 -11.490354 7.733168 -3.302357 -2.143336 3.341995 -8.710965 -4.970673 -11.855456 25.980419 10.549472 2.204761 47.367936 2.649421 15.560866 -3.141986 16.817918 2.959345 4.138640 0.476587 2.305679 10.553342 7.066633 -6.438854 
0.070489 0.014290 -0.085291 173.169722 30.425863 -6.611805 1.333151 -1.632607 -11.217273 -2.324753 -4.035474 -0.994625 -5.434546 7.478162 -0.446995 8.381036 5.994820 -4.608839 3.829986 0.355472 -10.049110 2.557323 0.998696 -1.932388 9.855853 -14.186932 -4.984556 -17.803253 10.416943 2.258952 0.735254 1.406087 13.633521 0.945670 -1.555001 -4.384733 1.779936 -1.008088 -0.430631 7.139115 -12.083618 -32.195660 8.348668 -24.088585 -4.610964 -24.389110 -5.339789 2.260623 -50.494526 -7.607063 12.030945 2.127566 -22.107229 9.329844 -1.835083 -4.613208 1.235183 -7.631163 -4.116935 -10.498056 24.385747 12.484232 1.567071 49.835290 2.261321 17.610200 -1.046987 21.609314 6.739012 4.188961 2.014610 3.080997 8.339998 6.273336 -5.776945 
0.094121 0.027806 -0.120322 173.266531 30.224720 -2.678776 2.145556 -3.509990 -21.035197 -2.318016 -1.664114 4.396758 -5.254388 8.265892 -0.573117 9.951590 5.900704 -5.804406 3.168604 1.548216 -20.131281 3.421047 -1.036029 4.086010 9.777063 -12.785917 -5.744013 -18.078756 8.762928 2.625051 1.253933 1.743075 19.106884 0.556200 -0.540966 -6.783450 1.929246 -0.202825 -1.022205 7.950024 -13.396289 -38.356734 10.824955 -26.618667 -7.048749 -23.825001 -6.595509 2.280113 -53.583021 -6.953313 15.617514 0.076414 -33.823859 13.616003 -0.026308 -7.352913 -0.413834 -7.462946 -3.428775 -10.069893 23.173369 15.089413 2.367398 51.690192 2.441079 19.815221 1.418566 29.393812 12.105102 3.572436 3.785857 2.860558 7.003723 5.822760 -6.028580 
0.119471 0.052482 -0.155970 173.224215 31.050615 1.794897 3.711610 -4.429902 -36.686739 -2.665293 1.320531 18.406297 -3.886612 6.538200 -2.592281 8.406105 3.020128 -5.661267 1.821106 2.316200 -35.632659 1.814904 -6.981932 18.850352 9.926559 -5.387101 -7.639318 -17.537293 1.559485 2.719195 1.229014 1.046626 24.122796 0.972635 -0.779736 -9.173562 3.018295 0.341768 -3.697132 4.657554 -14.509571 -32.618381 15.455503 -21.573034 -16.666960 -23.585736 -11.307032 5.095685 -57.028554 -4.978872 20.629911 -0.725920 -42.990567 16.199122 2.682704 -8.544202 -4.661083 -6.721494 -2.498547 -8.289627 20.423086 18.877728 6.603548 52.596201 3.780814 19.569345 7.338246 35.890250 21.996484 4.111749 5.507477 -4.985013 3.533204 5.790806 -3.496367 
0.134971 0.092901 -0.186139 174.762085 30.994996 2.299109 3.337676 -6.277180 -46.482747 -3.083675 2.307303 31.796552 1.174762 6.744943 -5.788232 5.182122 6.723012 -8.899146 -1.177545 1.288620 -47.066195 2.176896 -8.936422 35.812229 9.437219 -4.278789 -11.710892 -17.591309 0.408459 0.599397 1.228814 0.527144 29.334215 0.263295 -0.278154 -10.729188 2.195825 0.021263 -3.109251 2.427083 -11.940675 -31.372120 12.515538 -18.824932 -16.542608 -23.460176 -12.023249 5.098819 -57.960721 -5.475163 21.691593 -4.687828 -47.209441 28.319026 6.598630 -8.238861 4.699181 -8.693553 -3.472177 -11.303601 19.624094 18.503971 6.882856 53.940968 3.312578 19.706163 5.993680 44.559865 25.161117 -3.956328 6.013683 0.788375 6.566145 7.383940 -6.459234 
0.149462 0.149088 -0.211457 175.964600 30.217538 1.578942 4.798151 -7.724825 -57.154018 -3.838782 5.147809 47.767796 4.144322 7.937152 -9.178568 3.693928 8.243761 -11.736543 -3.043585 0.857688 -57.208735 2.076962 -9.507105 51.465985 9.063293 -4.468836 -16.007426 -18.699944 0.248181 -0.891384 0.614070 0.246778 33.238551 0.242497 0.323145 -13.152966 1.679532 -0.525565 -2.489610 1.535397 -9.924905 -31.497150 9.788430 -16.655899 -14.043697 -24.383658 -9.472214 5.015929 -56.293061 -3.620191 21.880993 -9.047124 -55.359986 36.566180 14.343944 -10.098811 8.871929 -10.865827 -4.370713 -13.080370 20.357625 15.868006 6.465038 51.231568 2.226202 19.728138 6.686519 54.205028 27.165369 -11.734235 8.550500 3.287728 8.342260 8.115590 -7.601566 
